<?xml version="1.0" standalone="no"?>
<svg xmlns:xlink="http://www.w3.org/1999/xlink" id="wave" style="transform:rotate(0deg); transition: 0.3s" viewBox="0 0 1440 490" version="1.1" xmlns="http://www.w3.org/2000/svg"><defs><linearGradient id="sw-gradient-0" x1="0" x2="0" y1="1" y2="0"><stop stop-color="rgba(50.348, 196.565, 250.767, 1)" offset="0%"/><stop stop-color="#5bd5fa" offset="100%"/></linearGradient></defs><path style="transform:translate(0, 0px); opacity:1" fill="url(#sw-gradient-0)" d="M0,245L60,204.2C120,163,240,82,360,89.8C480,98,600,196,720,196C840,196,960,98,1080,57.2C1200,16,1320,33,1440,106.2C1560,180,1680,310,1800,367.5C1920,425,2040,408,2160,375.7C2280,343,2400,294,2520,277.7C2640,261,2760,278,2880,277.7C3000,278,3120,261,3240,220.5C3360,180,3480,114,3600,147C3720,180,3840,310,3960,351.2C4080,392,4200,343,4320,285.8C4440,229,4560,163,4680,147C4800,131,4920,163,5040,196C5160,229,5280,261,5400,285.8C5520,310,5640,327,5760,277.7C5880,229,6000,114,6120,65.3C6240,16,6360,33,6480,32.7C6600,33,6720,16,6840,8.2C6960,0,7080,0,7200,16.3C7320,33,7440,65,7560,98C7680,131,7800,163,7920,163.3C8040,163,8160,131,8280,122.5C8400,114,8520,131,8580,138.8L8640,147L8640,490L8580,490C8520,490,8400,490,8280,490C8160,490,8040,490,7920,490C7800,490,7680,490,7560,490C7440,490,7320,490,7200,490C7080,490,6960,490,6840,490C6720,490,6600,490,6480,490C6360,490,6240,490,6120,490C6000,490,5880,490,5760,490C5640,490,5520,490,5400,490C5280,490,5160,490,5040,490C4920,490,4800,490,4680,490C4560,490,4440,490,4320,490C4200,490,4080,490,3960,490C3840,490,3720,490,3600,490C3480,490,3360,490,3240,490C3120,490,3000,490,2880,490C2760,490,2640,490,2520,490C2400,490,2280,490,2160,490C2040,490,1920,490,1800,490C1680,490,1560,490,1440,490C1320,490,1200,490,1080,490C960,490,840,490,720,490C600,490,480,490,360,490C240,490,120,490,60,490L0,490Z"/></svg>